ply
format ascii 1.0
comment Created by Blender 2.61 (sub 0) - www.blender.org, source file: 'oymodel.blend'
element vertex 32
property float x
property float y
property float z
property float nx
property float ny
property float nz
element face 30
property list uchar uint vertex_indices
end_header
0 4 0 1.0 0.0 0.0
0 3 0 1.0 0.0 0.0
1 4 0 1.0 0.0 0.0
1 3 0 1.0 0.0 0.0
2 4 0 1.0 0.0 0.0
2 3 0 1.0 0.0 0.0
3 4 0 1.0 0.0 0.0
3 3 0 1.0 0.0 0.0
0 1 0 1.0 0.0 0.0
0 0 0 1.0 0.0 0.0
1 1 0 1.0 0.0 0.0
1 0 0 1.0 0.0 0.0
2 1 0 1.0 0.0 0.0
2 0 0 1.0 0.0 0.0
3 1 0 1.0 0.0 0.0
3 0 0 1.0 0.0 0.0
0 4 1 1.0 0.0 0.0
0 3 1 1.0 0.0 0.0
1 4 1 1.0 0.0 0.0
1 3 1 1.0 0.0 0.0
2 4 1 1.0 0.0 0.0
2 3 1 1.0 0.0 0.0
3 4 1 1.0 0.0 0.0
3 3 1 1.0 0.0 0.0
0 1 1 1.0 0.0 0.0
0 0 1 1.0 0.0 0.0
1 1 1 1.0 0.0 0.0
1 0 1 1.0 0.0 0.0
2 1 1 1.0 0.0 0.0
2 0 1 1.0 0.0 0.0
3 1 1 1.0 0.0 0.0
3 0 1 1.0 0.0 0.0
4 0 1 3 2
4 2 3 5 4
4 4 5 7 6
4 3 10 12 5
4 8 9 11 10
4 10 11 13 12
4 12 13 15 14
4 16 17 19 18
4 18 19 21 20
4 20 21 23 22
4 19 26 28 21
4 24 25 27 26
4 26 27 29 28
4 28 29 31 30
4 0 1 17 16
4 0 2 18 16
4 2 4 20 18
4 4 6 22 20
4 6 7 23 22
4 5 7 23 21
4 5 12 28 21
4 12 14 30 28
4 14 15 31 30
4 13 15 31 29
4 11 13 29 27
4 9 11 27 25
4 8 9 25 24
4 8 10 26 24
4 3 10 26 19
4 1 3 19 17
